<?xml version="1.0" encoding="utf-8"?>
<!-- Generator: Adobe Illustrator 24.0.0, SVG Export Plug-In . SVG Version: 6.00 Build 0)  -->
<svg version="1.1" id="Layer_1" xmlns="http://www.w3.org/2000/svg" xmlns:xlink="http://www.w3.org/1999/xlink" x="0px" y="0px"
	 viewBox="0 0 500 500" style="enable-background:new 0 0 500 500;" xml:space="preserve">
<style type="text/css">
	.st0{fill:#401E27;}
	.st1{fill:none;stroke:#D9AD2A;stroke-width:10;stroke-miterlimit:10;}
	.st2{fill:none;stroke:#401E27;stroke-width:10;stroke-miterlimit:10;}
</style>
<g>
	<g>
		<path class="st0" d="M146.1,237.6H136v-10.1h-20.2v10.1h-10.1v-30.2c0-2.8,0.5-5.4,1.6-7.9c1.1-2.4,2.5-4.6,4.3-6.4
			c1.8-1.8,3.9-3.3,6.4-4.3c2.4-1.1,5.1-1.6,7.9-1.6c2.8,0,5.4,0.5,7.9,1.6c2.4,1.1,4.6,2.5,6.4,4.3s3.3,4,4.3,6.4
			c1.1,2.4,1.6,5.1,1.6,7.9V237.6z M136,217.5v-10.1c0-1.4-0.3-2.7-0.8-3.9s-1.2-2.3-2.2-3.2s-2-1.6-3.2-2.2s-2.5-0.8-3.9-0.8
			c-1.4,0-2.7,0.3-3.9,0.8s-2.3,1.2-3.2,2.2s-1.6,2-2.2,3.2s-0.8,2.5-0.8,3.9v10.1H136z"/>
		<path class="st0" d="M195.2,212.4c0,2.3-0.3,4.6-0.9,6.7s-1.4,4.1-2.5,6c-1.1,1.9-2.4,3.6-3.9,5.1c-1.5,1.5-3.2,2.9-5.1,4
			c-1.9,1.1-3.9,2-6,2.5s-4.4,0.9-6.7,0.9h-15.2v-50.4H170c2.3,0,4.6,0.3,6.7,0.9s4.2,1.4,6,2.5c1.9,1.1,3.6,2.4,5.1,4
			c1.5,1.5,2.8,3.2,3.9,5.1c1.1,1.9,2,3.9,2.5,6S195.2,210.1,195.2,212.4z M185.1,212.4c0-2.1-0.4-4-1.2-5.9
			c-0.8-1.8-1.9-3.4-3.2-4.8s-3-2.5-4.8-3.3c-1.8-0.8-3.8-1.2-5.9-1.2h-5v30.2h5c2.1,0,4-0.4,5.9-1.2c1.8-0.8,3.4-1.9,4.8-3.2
			s2.4-3,3.2-4.8C184.8,216.5,185.1,214.5,185.1,212.4z"/>
		<path class="st0" d="M148.9,268.3l-16.6,50.4h-10.1l-16.5-50.4h11.5l10.1,33.6l10.1-33.6H148.9z"/>
		<path class="st0" d="M192.4,318.8h-10.1v-10.1h-20.2v10.1h-10.1v-30.2c0-2.8,0.5-5.4,1.6-7.9c1.1-2.4,2.5-4.6,4.3-6.4
			c1.8-1.8,3.9-3.3,6.4-4.3c2.4-1.1,5.1-1.6,7.9-1.6c2.8,0,5.4,0.5,7.9,1.6c2.4,1.1,4.6,2.5,6.4,4.3s3.3,4,4.3,6.4
			c1.1,2.4,1.6,5.1,1.6,7.9V318.8z M182.3,298.6v-10.1c0-1.4-0.3-2.7-0.8-3.9s-1.2-2.3-2.2-3.2s-2-1.6-3.2-2.2s-2.5-0.8-3.9-0.8
			c-1.4,0-2.7,0.3-3.9,0.8s-2.3,1.2-3.2,2.2s-1.6,2-2.2,3.2s-0.8,2.5-0.8,3.9v10.1H182.3z"/>
		<path class="st0" d="M241.5,318.8h-10.8l-19.4-33.2v33.2h-10.1v-50.4H212l19.4,33.2v-33.2h10.1V318.8z"/>
		<path class="st0" d="M291.1,313.6c-2.3,2-5,3.6-7.9,4.6c-2.9,1.1-5.9,1.6-9,1.6c-2.4,0-4.7-0.3-6.9-0.9c-2.2-0.6-4.3-1.5-6.2-2.6
			c-1.9-1.1-3.7-2.5-5.3-4.1c-1.6-1.6-3-3.4-4.1-5.3c-1.1-1.9-2-4-2.6-6.2c-0.6-2.2-0.9-4.5-0.9-6.9s0.3-4.7,0.9-6.9
			c0.6-2.2,1.5-4.3,2.6-6.2c1.1-1.9,2.5-3.7,4.1-5.3c1.6-1.6,3.4-3,5.3-4.1c1.9-1.1,4-2,6.2-2.6c2.2-0.6,4.5-0.9,6.9-0.9
			c3.1,0,6.1,0.5,9,1.6c2.9,1.1,5.5,2.6,7.9,4.7l-5.3,8.8c-1.5-1.6-3.2-2.8-5.2-3.7c-2-0.9-4.1-1.3-6.3-1.3c-2.2,0-4.3,0.4-6.3,1.3
			c-1.9,0.8-3.6,2-5.1,3.4c-1.5,1.4-2.6,3.1-3.4,5.1c-0.8,2-1.3,4-1.3,6.2c0,2.2,0.4,4.3,1.3,6.2s2,3.6,3.4,5.1
			c1.5,1.5,3.2,2.6,5.1,3.4c1.9,0.8,4,1.3,6.3,1.3c2.2,0,4.3-0.4,6.3-1.3c2-0.9,3.8-2.1,5.2-3.7L291.1,313.6z"/>
		<path class="st0" d="M331.5,318.8H297v-50.4h34.6v10.1H307v10.1h16.6v10.1H307v10.1h24.5V318.8z"/>
		<path class="st0" d="M379,293.6c0,2.3-0.3,4.6-0.9,6.7s-1.4,4.1-2.5,6c-1.1,1.9-2.4,3.6-3.9,5.1c-1.5,1.5-3.2,2.9-5.1,4
			c-1.9,1.1-3.9,2-6,2.5s-4.4,0.9-6.7,0.9h-15.2v-50.4h15.2c2.3,0,4.6,0.3,6.7,0.9s4.2,1.4,6,2.5c1.9,1.1,3.6,2.4,5.1,4
			c1.5,1.5,2.8,3.2,3.9,5.1c1.1,1.9,2,3.9,2.5,6S379,291.2,379,293.6z M368.9,293.6c0-2.1-0.4-4-1.2-5.9c-0.8-1.8-1.9-3.4-3.2-4.8
			s-3-2.5-4.8-3.3c-1.8-0.8-3.8-1.2-5.9-1.2h-5v30.2h5c2.1,0,4-0.4,5.9-1.2c1.8-0.8,3.4-1.9,4.8-3.2s2.4-3,3.2-4.8
			C368.5,297.6,368.9,295.6,368.9,293.6z"/>
	</g>
	<line class="st1" x1="105" y1="252.6" x2="197.9" y2="252.6"/>
	<rect x="87.6" y="159.6" class="st2" width="324.8" height="180.8"/>
</g>
</svg>
